<svg width="32" height="33" viewBox="0 0 32 33" fill="none" xmlns="http://www.w3.org/2000/svg">
<g clip-path="url(#clip0_88_202)">
<rect y="0.5" width="32" height="32" rx="8" fill="white"/>
<rect y="0.5" width="32" height="32" rx="8" fill="url(#paint0_linear_88_202)"/>
<path fill-rule="evenodd" clip-rule="evenodd" d="M16 2.53882C8.28945 2.53882 2.03882 8.78945 2.03882 16.5C2.03882 24.2105 8.28945 30.4612 16 30.4612C23.7105 30.4612 29.9612 24.2105 29.9612 16.5C29.9612 8.78945 23.7105 2.53882 16 2.53882ZM1.96115 16.5C1.96115 8.74655 8.24655 2.46115 16 2.46115C23.7534 2.46115 30.0388 8.74655 30.0388 16.5C30.0388 24.2534 23.7534 30.5388 16 30.5388C8.24655 30.5388 1.96115 24.2534 1.96115 16.5Z" fill="url(#paint1_linear_88_202)"/>
<path fill-rule="evenodd" clip-rule="evenodd" d="M16 12.5779C13.8338 12.5779 12.0777 14.334 12.0777 16.5002C12.0777 18.6665 13.8338 20.4226 16 20.4226C18.1662 20.4226 19.9223 18.6665 19.9223 16.5002C19.9223 14.334 18.1662 12.5779 16 12.5779ZM12 16.5002C12 14.2911 13.7909 12.5002 16 12.5002C18.2091 12.5002 20 14.2911 20 16.5002C20 18.7094 18.2091 20.5002 16 20.5002C13.7909 20.5002 12 18.7094 12 16.5002Z" fill="url(#paint2_linear_88_202)"/>
<path fill-rule="evenodd" clip-rule="evenodd" d="M16 13.8201C14.5201 13.8201 13.3204 15.0198 13.3204 16.4997C13.3204 17.9796 14.5201 19.1793 16 19.1793C17.4799 19.1793 18.6796 17.9796 18.6796 16.4997C18.6796 15.0198 17.4799 13.8201 16 13.8201ZM13.2427 16.4997C13.2427 14.9769 14.4772 13.7424 16 13.7424C17.5228 13.7424 18.7573 14.9769 18.7573 16.4997C18.7573 18.0225 17.5228 19.257 16 19.257C14.4772 19.257 13.2427 18.0225 13.2427 16.4997Z" fill="url(#paint3_linear_88_202)"/>
<path d="M15.9612 0.5H16.0388V32.5H15.9612V0.5Z" fill="url(#paint4_linear_88_202)"/>
<path d="M32 16.4609L32 16.5386L-3.39506e-09 16.5386L0 16.4609L32 16.4609Z" fill="url(#paint5_linear_88_202)"/>
<path d="M26.602 0.5H26.6796V32.5H26.602V0.5Z" fill="url(#paint6_linear_88_202)"/>
<path d="M10.6408 0.5H10.7184V32.5H10.6408V0.5Z" fill="url(#paint7_linear_88_202)"/>
<path d="M21.2816 0.5H21.3592V32.5H21.2816V0.5Z" fill="url(#paint8_linear_88_202)"/>
<path d="M5.32037 0.5H5.39804V32.5H5.32037V0.5Z" fill="url(#paint9_linear_88_202)"/>
<path d="M32 27.1016L32 27.1792L-3.39506e-09 27.1792L0 27.1016L32 27.1016Z" fill="url(#paint10_linear_88_202)"/>
<path d="M32 11.1406L32 11.2183L-3.39506e-09 11.2183L0 11.1406L32 11.1406Z" fill="url(#paint11_linear_88_202)"/>
<path d="M32 21.7812L32 21.8589L-3.39506e-09 21.8589L0 21.7812L32 21.7812Z" fill="url(#paint12_linear_88_202)"/>
<path d="M32 5.82031L32 5.89798L-3.39506e-09 5.89798L0 5.82031L32 5.82031Z" fill="url(#paint13_linear_88_202)"/>
<g filter="url(#filter0_dd_88_202)">
<circle cx="16" cy="16.5" r="8" fill="#6B6DEA"/>
</g>
<g filter="url(#filter1_b_88_202)">
<path d="M0 16.5H32V19.7C32 24.1804 32 26.4206 31.1281 28.1319C30.3611 29.6372 29.1372 30.8611 27.6319 31.6281C25.9206 32.5 23.6804 32.5 19.2 32.5H12.8C8.31958 32.5 6.07937 32.5 4.36808 31.6281C2.86278 30.8611 1.63893 29.6372 0.871948 28.1319C0 26.4206 0 24.1804 0 19.7V16.5Z" fill="white" fill-opacity="0.2"/>
</g>
</g>
<rect x="0.1" y="0.6" width="31.8" height="31.8" rx="7.9" stroke="url(#paint14_linear_88_202)" stroke-width="0.2"/>
<defs>
<filter id="filter0_dd_88_202" x="5" y="6.5" width="22" height="22" filterUnits="userSpaceOnUse" color-interpolation-filters="sRGB">
<feFlood flood-opacity="0" result="BackgroundImageFix"/>
<feColorMatrix in="SourceAlpha" type="matrix" values="0 0 0 0 0 0 0 0 0 0 0 0 0 0 0 0 0 0 127 0" result="hardAlpha"/>
<feOffset dy="1"/>
<feGaussianBlur stdDeviation="1"/>
<feColorMatrix type="matrix" values="0 0 0 0 0.0627451 0 0 0 0 0.0941176 0 0 0 0 0.156863 0 0 0 0.06 0"/>
<feBlend mode="normal" in2="BackgroundImageFix" result="effect1_dropShadow_88_202"/>
<feColorMatrix in="SourceAlpha" type="matrix" values="0 0 0 0 0 0 0 0 0 0 0 0 0 0 0 0 0 0 127 0" result="hardAlpha"/>
<feOffset dy="1"/>
<feGaussianBlur stdDeviation="1.5"/>
<feColorMatrix type="matrix" values="0 0 0 0 0.0627451 0 0 0 0 0.0941176 0 0 0 0 0.156863 0 0 0 0.1 0"/>
<feBlend mode="normal" in2="effect1_dropShadow_88_202" result="effect2_dropShadow_88_202"/>
<feBlend mode="normal" in="SourceGraphic" in2="effect2_dropShadow_88_202" result="shape"/>
</filter>
<filter id="filter1_b_88_202" x="-5" y="11.5" width="42" height="26" filterUnits="userSpaceOnUse" color-interpolation-filters="sRGB">
<feFlood flood-opacity="0" result="BackgroundImageFix"/>
<feGaussianBlur in="BackgroundImageFix" stdDeviation="2.5"/>
<feComposite in2="SourceAlpha" operator="in" result="effect1_backgroundBlur_88_202"/>
<feBlend mode="normal" in="SourceGraphic" in2="effect1_backgroundBlur_88_202" result="shape"/>
</filter>
<linearGradient id="paint0_linear_88_202" x1="16" y1="0.5" x2="16" y2="32.5" gradientUnits="userSpaceOnUse">
<stop stop-color="white"/>
<stop offset="1" stop-color="#D0D5DD"/>
<stop offset="1" stop-color="#EAECF0"/>
</linearGradient>
<linearGradient id="paint1_linear_88_202" x1="16" y1="2.46115" x2="16" y2="30.5388" gradientUnits="userSpaceOnUse">
<stop stop-color="#00147B"/>
<stop offset="1" stop-color="#E5DAFF"/>
</linearGradient>
<linearGradient id="paint2_linear_88_202" x1="16" y1="12.5002" x2="16" y2="20.5002" gradientUnits="userSpaceOnUse">
<stop stop-color="#00147B"/>
<stop offset="1" stop-color="#E5DAFF"/>
</linearGradient>
<linearGradient id="paint3_linear_88_202" x1="16" y1="13.7424" x2="16" y2="19.257" gradientUnits="userSpaceOnUse">
<stop stop-color="#00147B"/>
<stop offset="1" stop-color="#E5DAFF"/>
</linearGradient>
<linearGradient id="paint4_linear_88_202" x1="16" y1="0.5" x2="16" y2="32.5" gradientUnits="userSpaceOnUse">
<stop stop-color="#00147B"/>
<stop offset="1" stop-color="#E5DAFF"/>
</linearGradient>
<linearGradient id="paint5_linear_88_202" x1="32" y1="16.4998" x2="-1.69753e-09" y2="16.4998" gradientUnits="userSpaceOnUse">
<stop stop-color="#00147B"/>
<stop offset="1" stop-color="#E5DAFF"/>
</linearGradient>
<linearGradient id="paint6_linear_88_202" x1="26.6408" y1="0.5" x2="26.6408" y2="32.5" gradientUnits="userSpaceOnUse">
<stop stop-color="#00147B"/>
<stop offset="1" stop-color="#E5DAFF"/>
</linearGradient>
<linearGradient id="paint7_linear_88_202" x1="10.6796" y1="0.5" x2="10.6796" y2="32.5" gradientUnits="userSpaceOnUse">
<stop stop-color="#00147B"/>
<stop offset="1" stop-color="#E5DAFF"/>
</linearGradient>
<linearGradient id="paint8_linear_88_202" x1="21.3204" y1="0.5" x2="21.3204" y2="32.5" gradientUnits="userSpaceOnUse">
<stop stop-color="#00147B"/>
<stop offset="1" stop-color="#E5DAFF"/>
</linearGradient>
<linearGradient id="paint9_linear_88_202" x1="5.35921" y1="0.5" x2="5.35921" y2="32.5" gradientUnits="userSpaceOnUse">
<stop stop-color="#00147B"/>
<stop offset="1" stop-color="#E5DAFF"/>
</linearGradient>
<linearGradient id="paint10_linear_88_202" x1="32" y1="27.1404" x2="-1.69753e-09" y2="27.1404" gradientUnits="userSpaceOnUse">
<stop stop-color="#00147B"/>
<stop offset="1" stop-color="#E5DAFF"/>
</linearGradient>
<linearGradient id="paint11_linear_88_202" x1="32" y1="11.1795" x2="-1.69753e-09" y2="11.1795" gradientUnits="userSpaceOnUse">
<stop stop-color="#00147B"/>
<stop offset="1" stop-color="#E5DAFF"/>
</linearGradient>
<linearGradient id="paint12_linear_88_202" x1="32" y1="21.8201" x2="-1.69753e-09" y2="21.8201" gradientUnits="userSpaceOnUse">
<stop stop-color="#00147B"/>
<stop offset="1" stop-color="#E5DAFF"/>
</linearGradient>
<linearGradient id="paint13_linear_88_202" x1="32" y1="5.85915" x2="-1.69753e-09" y2="5.85915" gradientUnits="userSpaceOnUse">
<stop stop-color="#00147B"/>
<stop offset="1" stop-color="#E5DAFF"/>
</linearGradient>
<linearGradient id="paint14_linear_88_202" x1="16" y1="0.5" x2="16" y2="32.5" gradientUnits="userSpaceOnUse">
<stop stop-color="#00147B"/>
<stop offset="1" stop-color="#E5DAFF"/>
</linearGradient>
<clipPath id="clip0_88_202">
<rect y="0.5" width="32" height="32" rx="8" fill="white"/>
</clipPath>
</defs>
</svg>
