<svg width="101" height="33" viewBox="0 0 101 33" fill="none" xmlns="http://www.w3.org/2000/svg">
<path d="M10.0038 8.95453H12.6387V18.4574C12.6387 19.499 12.3925 20.4152 11.9001 21.2059C11.4124 21.9967 10.7258 22.6146 9.8404 23.0596C8.95498 23.5 7.92042 23.7202 6.73671 23.7202C5.54826 23.7202 4.51133 23.5 3.62591 23.0596C2.74049 22.6146 2.05394 21.9967 1.56625 21.2059C1.07856 20.4152 0.834717 19.499 0.834717 18.4574V8.95453H3.46966V18.2372C3.46966 18.8433 3.60224 19.383 3.86739 19.8565C4.13727 20.33 4.51606 20.7017 5.00375 20.9716C5.49144 21.2367 6.06909 21.3693 6.73671 21.3693C7.40432 21.3693 7.98197 21.2367 8.46966 20.9716C8.96208 20.7017 9.34087 20.33 9.60602 19.8565C9.87118 19.383 10.0038 18.8433 10.0038 18.2372V8.95453Z" fill="#101828"/>
<path d="M17.9601 17.1079V23.5H15.389V12.5909H17.8464V14.4446H17.9743C18.2252 13.8338 18.6253 13.3485 19.1746 12.9886C19.7285 12.6288 20.4127 12.4488 21.2271 12.4488C21.98 12.4488 22.6357 12.6098 23.1944 12.9318C23.7579 13.2538 24.1935 13.7202 24.5013 14.3309C24.8138 14.9417 24.9676 15.6827 24.9629 16.554V23.5H22.3919V16.9517C22.3919 16.2225 22.2025 15.652 21.8237 15.24C21.4497 14.8281 20.9312 14.6221 20.2683 14.6221C19.8185 14.6221 19.4184 14.7216 19.068 14.9204C18.7224 15.1146 18.4501 15.3963 18.2513 15.7656C18.0571 16.1349 17.9601 16.5824 17.9601 17.1079Z" fill="#101828"/>
<path d="M33.024 12.5909V14.5795H26.7527V12.5909H33.024ZM28.301 9.97726H30.872V20.2187C30.872 20.5644 30.9241 20.8295 31.0283 21.0142C31.1372 21.1941 31.2792 21.3172 31.4544 21.3835C31.6296 21.4498 31.8237 21.4829 32.0368 21.4829C32.1978 21.4829 32.3445 21.4711 32.4771 21.4474C32.6144 21.4238 32.7186 21.4024 32.7896 21.3835L33.2229 23.3934C33.0855 23.4408 32.889 23.4929 32.6334 23.5497C32.3824 23.6065 32.0747 23.6397 31.7101 23.6491C31.0661 23.6681 30.4861 23.571 29.97 23.3579C29.4539 23.1401 29.0444 22.804 28.7413 22.3494C28.443 21.8949 28.2962 21.3267 28.301 20.6449V9.97726Z" fill="#101828"/>
<path d="M35.1742 23.5V12.5909H37.7452V23.5H35.1742ZM36.4668 11.0426C36.0596 11.0426 35.7092 10.9077 35.4157 10.6378C35.1221 10.3631 34.9753 10.0341 34.9753 9.65055C34.9753 9.26229 35.1221 8.93322 35.4157 8.66333C35.7092 8.38871 36.0596 8.2514 36.4668 8.2514C36.8787 8.2514 37.2291 8.38871 37.518 8.66333C37.8115 8.93322 37.9583 9.26229 37.9583 9.65055C37.9583 10.0341 37.8115 10.3631 37.518 10.6378C37.2291 10.9077 36.8787 11.0426 36.4668 11.0426Z" fill="#101828"/>
<path d="M45.8365 12.5909V14.5795H39.5652V12.5909H45.8365ZM41.1135 9.97726H43.6845V20.2187C43.6845 20.5644 43.7366 20.8295 43.8408 21.0142C43.9497 21.1941 44.0917 21.3172 44.2669 21.3835C44.4421 21.4498 44.6362 21.4829 44.8493 21.4829C45.0103 21.4829 45.157 21.4711 45.2896 21.4474C45.4269 21.4238 45.5311 21.4024 45.6021 21.3835L46.0354 23.3934C45.898 23.4408 45.7015 23.4929 45.4459 23.5497C45.1949 23.6065 44.8872 23.6397 44.5226 23.6491C43.8786 23.6681 43.2986 23.571 42.7825 23.3579C42.2664 23.1401 41.8569 22.804 41.5538 22.3494C41.2555 21.8949 41.1087 21.3267 41.1135 20.6449V9.97726Z" fill="#101828"/>
<path d="M50.7921 8.95453V23.5H48.2211V8.95453H50.7921Z" fill="#101828"/>
<path d="M58.2655 23.7131C57.1717 23.7131 56.2271 23.4858 55.4317 23.0312C54.6409 22.572 54.0325 21.9233 53.6064 21.0852C53.1802 20.2424 52.9672 19.2505 52.9672 18.1094C52.9672 16.9872 53.1802 16.0024 53.6064 15.1548C54.0373 14.3025 54.6386 13.6397 55.4104 13.1662C56.1821 12.688 57.0889 12.4488 58.1305 12.4488C58.8029 12.4488 59.4373 12.5577 60.0339 12.7756C60.6353 12.9886 61.1656 13.3201 61.6248 13.7699C62.0889 14.2197 62.4534 14.7926 62.7186 15.4886C62.9837 16.1799 63.1163 17.0038 63.1163 17.9602V18.7486H54.1746V17.0156H60.6518C60.6471 16.5232 60.5406 16.0852 60.3322 15.7017C60.1239 15.3134 59.8327 15.008 59.4587 14.7855C59.0893 14.563 58.6585 14.4517 58.166 14.4517C57.6405 14.4517 57.1788 14.5795 56.7811 14.8352C56.3834 15.0862 56.0732 15.4176 55.8507 15.8295C55.6329 16.2367 55.5216 16.6842 55.5169 17.1719V18.6846C55.5169 19.3191 55.6329 19.8636 55.8649 20.3182C56.0969 20.768 56.4212 21.1136 56.8379 21.3551C57.2546 21.5918 57.7423 21.7102 58.301 21.7102C58.675 21.7102 59.0136 21.6581 59.3166 21.554C59.6196 21.4451 59.8824 21.2864 60.105 21.0781C60.3275 20.8698 60.4956 20.6117 60.6092 20.304L63.0098 20.5738C62.8583 21.2083 62.5695 21.7623 62.1433 22.2358C61.7219 22.7045 61.1821 23.0691 60.524 23.3295C59.8658 23.5852 59.113 23.7131 58.2655 23.7131Z" fill="#101828"/>
<path d="M69.3397 23.6917C68.4827 23.6917 67.7156 23.4716 67.0386 23.0312C66.3615 22.5909 65.8264 21.9517 65.4334 21.1136C65.0404 20.2756 64.8439 19.2576 64.8439 18.0596C64.8439 16.8475 65.0428 15.8248 65.4405 14.9915C65.843 14.1534 66.3851 13.5213 67.067 13.0952C67.7488 12.6643 68.5087 12.4488 69.3468 12.4488C69.986 12.4488 70.5116 12.5577 70.9235 12.7756C71.3354 12.9886 71.6621 13.2467 71.9036 13.5497C72.1451 13.848 72.3321 14.1297 72.4647 14.3949H72.5712V8.95453H75.1493V23.5H72.6209V21.7812H72.4647C72.3321 22.0464 72.1404 22.3281 71.8894 22.6264C71.6385 22.92 71.307 23.1709 70.8951 23.3792C70.4831 23.5876 69.9647 23.6917 69.3397 23.6917ZM70.057 21.5824C70.6015 21.5824 71.0655 21.4356 71.4491 21.142C71.8326 20.8437 72.1238 20.4294 72.3226 19.8991C72.5215 19.3688 72.6209 18.7509 72.6209 18.0454C72.6209 17.3399 72.5215 16.7268 72.3226 16.2059C72.1285 15.6851 71.8397 15.2803 71.4562 14.9915C71.0774 14.7026 70.611 14.5582 70.057 14.5582C69.4841 14.5582 69.0059 14.7074 68.6224 15.0057C68.2388 15.304 67.95 15.7159 67.7559 16.2415C67.5618 16.767 67.4647 17.3684 67.4647 18.0454C67.4647 18.7273 67.5618 19.3357 67.7559 19.8707C67.9547 20.401 68.2459 20.8201 68.6295 21.1278C69.0177 21.4309 69.4936 21.5824 70.057 21.5824Z" fill="#101828"/>
<path d="M92.1327 8.95453H94.7676V18.4574C94.7676 19.499 94.5214 20.4152 94.029 21.2059C93.5413 21.9967 92.8547 22.6146 91.9693 23.0596C91.0839 23.5 90.0493 23.7202 88.8656 23.7202C87.6772 23.7202 86.6402 23.5 85.7548 23.0596C84.8694 22.6146 84.1828 21.9967 83.6952 21.2059C83.2075 20.4152 82.9636 19.499 82.9636 18.4574V8.95453H85.5986V18.2372C85.5986 18.8433 85.7311 19.383 85.9963 19.8565C86.2662 20.33 86.645 20.7017 87.1327 20.9716C87.6203 21.2367 88.198 21.3693 88.8656 21.3693C89.5332 21.3693 90.1109 21.2367 90.5986 20.9716C91.091 20.7017 91.4698 20.33 91.7349 19.8565C92.0001 19.383 92.1327 18.8433 92.1327 18.2372V8.95453Z" fill="#101828"/>
<path d="M100.267 8.95453V23.5H97.6316V8.95453H100.267Z" fill="#101828"/>
</svg>
