<svg width="101" height="33" viewBox="0 0 101 33" fill="none" xmlns="http://www.w3.org/2000/svg">
<path d="M10.0037 8.95453H12.6386V18.4574C12.6386 19.499 12.3924 20.4152 11.9 21.2059C11.4123 21.9967 10.7258 22.6146 9.84034 23.0596C8.95492 23.5 7.92036 23.7202 6.73664 23.7202C5.5482 23.7202 4.51127 23.5 3.62585 23.0596C2.74043 22.6146 2.05388 21.9967 1.56619 21.2059C1.0785 20.4152 0.834656 19.499 0.834656 18.4574V8.95453H3.4696V18.2372C3.4696 18.8433 3.60217 19.383 3.86733 19.8565C4.13721 20.33 4.516 20.7017 5.00369 20.9716C5.49138 21.2367 6.06903 21.3693 6.73664 21.3693C7.40426 21.3693 7.98191 21.2367 8.4696 20.9716C8.96202 20.7017 9.34081 20.33 9.60596 19.8565C9.87111 19.383 10.0037 18.8433 10.0037 18.2372V8.95453Z" fill="#101828"/>
<path d="M17.96 17.1079V23.5H15.389V12.5909H17.8464V14.4446H17.9742C18.2252 13.8338 18.6253 13.3485 19.1745 12.9886C19.7285 12.6288 20.4127 12.4488 21.2271 12.4488C21.9799 12.4488 22.6357 12.6098 23.1944 12.9318C23.7578 13.2538 24.1934 13.7202 24.5012 14.3309C24.8137 14.9417 24.9676 15.6827 24.9629 16.554V23.5H22.3918V16.9517C22.3918 16.2225 22.2024 15.652 21.8236 15.24C21.4496 14.8281 20.9311 14.6221 20.2682 14.6221C19.8184 14.6221 19.4183 14.7216 19.068 14.9204C18.7223 15.1146 18.4501 15.3963 18.2512 15.7656C18.0571 16.1349 17.96 16.5824 17.96 17.1079Z" fill="#101828"/>
<path d="M33.0239 12.5909V14.5795H26.7526V12.5909H33.0239ZM28.3009 9.97726H30.8719V20.2187C30.8719 20.5644 30.924 20.8295 31.0282 21.0142C31.1371 21.1941 31.2791 21.3172 31.4543 21.3835C31.6295 21.4498 31.8236 21.4829 32.0367 21.4829C32.1977 21.4829 32.3445 21.4711 32.4771 21.4474C32.6144 21.4238 32.7185 21.4024 32.7896 21.3835L33.2228 23.3934C33.0855 23.4408 32.889 23.4929 32.6333 23.5497C32.3824 23.6065 32.0746 23.6397 31.71 23.6491C31.0661 23.6681 30.4861 23.571 29.97 23.3579C29.4539 23.1401 29.0443 22.804 28.7413 22.3494C28.443 21.8949 28.2962 21.3267 28.3009 20.6449V9.97726Z" fill="#101828"/>
<path d="M35.1741 23.5V12.5909H37.7452V23.5H35.1741ZM36.4668 11.0426C36.0596 11.0426 35.7092 10.9077 35.4156 10.6378C35.1221 10.3631 34.9753 10.0341 34.9753 9.65055C34.9753 9.26229 35.1221 8.93322 35.4156 8.66333C35.7092 8.38871 36.0596 8.2514 36.4668 8.2514C36.8787 8.2514 37.2291 8.38871 37.5179 8.66333C37.8115 8.93322 37.9582 9.26229 37.9582 9.65055C37.9582 10.0341 37.8115 10.3631 37.5179 10.6378C37.2291 10.9077 36.8787 11.0426 36.4668 11.0426Z" fill="#101828"/>
<path d="M45.8364 12.5909V14.5795H39.5651V12.5909H45.8364ZM41.1134 9.97726H43.6844V20.2187C43.6844 20.5644 43.7365 20.8295 43.8407 21.0142C43.9496 21.1941 44.0916 21.3172 44.2668 21.3835C44.442 21.4498 44.6361 21.4829 44.8492 21.4829C45.0102 21.4829 45.157 21.4711 45.2896 21.4474C45.4269 21.4238 45.531 21.4024 45.6021 21.3835L46.0353 23.3934C45.898 23.4408 45.7015 23.4929 45.4458 23.5497C45.1949 23.6065 44.8871 23.6397 44.5225 23.6491C43.8786 23.6681 43.2986 23.571 42.7825 23.3579C42.2664 23.1401 41.8568 22.804 41.5538 22.3494C41.2555 21.8949 41.1087 21.3267 41.1134 20.6449V9.97726Z" fill="#101828"/>
<path d="M50.792 8.95453V23.5H48.221V8.95453H50.792Z" fill="#101828"/>
<path d="M58.2654 23.7131C57.1717 23.7131 56.2271 23.4858 55.4316 23.0312C54.6409 22.572 54.0325 21.9233 53.6063 21.0852C53.1802 20.2424 52.9671 19.2505 52.9671 18.1094C52.9671 16.9872 53.1802 16.0024 53.6063 15.1548C54.0372 14.3025 54.6385 13.6397 55.4103 13.1662C56.1821 12.688 57.0888 12.4488 58.1305 12.4488C58.8028 12.4488 59.4373 12.5577 60.0339 12.7756C60.6352 12.9886 61.1655 13.3201 61.6248 13.7699C62.0888 14.2197 62.4534 14.7926 62.7185 15.4886C62.9837 16.1799 63.1163 17.0038 63.1163 17.9602V18.7486H54.1745V17.0156H60.6518C60.647 16.5232 60.5405 16.0852 60.3322 15.7017C60.1238 15.3134 59.8326 15.008 59.4586 14.7855C59.0893 14.563 58.6584 14.4517 58.166 14.4517C57.6404 14.4517 57.1788 14.5795 56.781 14.8352C56.3833 15.0862 56.0732 15.4176 55.8506 15.8295C55.6328 16.2367 55.5216 16.6842 55.5168 17.1719V18.6846C55.5168 19.3191 55.6328 19.8636 55.8648 20.3182C56.0968 20.768 56.4212 21.1136 56.8379 21.3551C57.2545 21.5918 57.7422 21.7102 58.3009 21.7102C58.675 21.7102 59.0135 21.6581 59.3165 21.554C59.6196 21.4451 59.8824 21.2864 60.1049 21.0781C60.3274 20.8698 60.4955 20.6117 60.6092 20.304L63.0097 20.5738C62.8582 21.2083 62.5694 21.7623 62.1433 22.2358C61.7219 22.7045 61.1821 23.0691 60.5239 23.3295C59.8658 23.5852 59.1129 23.7131 58.2654 23.7131Z" fill="#101828"/>
<path d="M69.3396 23.6917C68.4826 23.6917 67.7156 23.4716 67.0385 23.0312C66.3614 22.5909 65.8264 21.9517 65.4334 21.1136C65.0404 20.2756 64.8439 19.2576 64.8439 18.0596C64.8439 16.8475 65.0427 15.8248 65.4405 14.9915C65.8429 14.1534 66.3851 13.5213 67.0669 13.0952C67.7487 12.6643 68.5087 12.4488 69.3467 12.4488C69.9859 12.4488 70.5115 12.5577 70.9234 12.7756C71.3354 12.9886 71.6621 13.2467 71.9035 13.5497C72.145 13.848 72.332 14.1297 72.4646 14.3949H72.5712V8.95453H75.1493V23.5H72.6209V21.7812H72.4646C72.332 22.0464 72.1403 22.3281 71.8893 22.6264C71.6384 22.92 71.307 23.1709 70.895 23.3792C70.4831 23.5876 69.9646 23.6917 69.3396 23.6917ZM70.057 21.5824C70.6015 21.5824 71.0655 21.4356 71.449 21.142C71.8325 20.8437 72.1237 20.4294 72.3226 19.8991C72.5214 19.3688 72.6209 18.7509 72.6209 18.0454C72.6209 17.3399 72.5214 16.7268 72.3226 16.2059C72.1284 15.6851 71.8396 15.2803 71.4561 14.9915C71.0773 14.7026 70.6109 14.5582 70.057 14.5582C69.484 14.5582 69.0058 14.7074 68.6223 15.0057C68.2388 15.304 67.9499 15.7159 67.7558 16.2415C67.5617 16.767 67.4646 17.3684 67.4646 18.0454C67.4646 18.7273 67.5617 19.3357 67.7558 19.8707C67.9547 20.401 68.2459 20.8201 68.6294 21.1278C69.0177 21.4309 69.4935 21.5824 70.057 21.5824Z" fill="#101828"/>
<path d="M92.1326 8.95453H94.7675V18.4574C94.7675 19.499 94.5213 20.4152 94.0289 21.2059C93.5412 21.9967 92.8547 22.6146 91.9692 23.0596C91.0838 23.5 90.0493 23.7202 88.8655 23.7202C87.6771 23.7202 86.6402 23.5 85.7548 23.0596C84.8693 22.6146 84.1828 21.9967 83.6951 21.2059C83.2074 20.4152 82.9636 19.499 82.9636 18.4574V8.95453H85.5985V18.2372C85.5985 18.8433 85.7311 19.383 85.9962 19.8565C86.2661 20.33 86.6449 20.7017 87.1326 20.9716C87.6203 21.2367 88.1979 21.3693 88.8655 21.3693C89.5332 21.3693 90.1108 21.2367 90.5985 20.9716C91.0909 20.7017 91.4697 20.33 91.7349 19.8565C92 19.383 92.1326 18.8433 92.1326 18.2372V8.95453Z" fill="#101828"/>
<path d="M100.266 8.95453V23.5H97.6315V8.95453H100.266Z" fill="#101828"/>
</svg>
