<svg width="21" height="21" viewBox="0 0 21 21" fill="none" xmlns="http://www.w3.org/2000/svg">
<path d="M9.10507 0.0260145C4.08427 0.0260145 0 4.11029 0 9.13108C0 14.1519 4.08427 18.2362 9.10507 18.2362C10.6399 18.2362 12.1488 17.872 13.4235 17.1696C13.5256 17.2924 13.6388 17.4056 13.7617 17.5077L16.3631 20.1092C16.6033 20.3795 16.8962 20.5978 17.2239 20.7508C17.5515 20.9038 17.907 20.9882 18.2684 20.9989C18.6299 21.0095 18.9897 20.9461 19.3258 20.8127C19.6619 20.6792 19.9671 20.4785 20.2228 20.2228C20.4785 19.9671 20.6792 19.6619 20.8127 19.3258C20.9461 18.9897 21.0095 18.6299 20.9989 18.2684C20.9882 17.907 20.9038 17.5515 20.7508 17.2239C20.5978 16.8962 20.3795 16.6033 20.1092 16.3631L17.5077 13.7617C17.381 13.6349 17.2415 13.5216 17.0915 13.4235C17.7939 12.1488 18.2362 10.6659 18.2362 9.10507C18.2362 4.08427 14.1519 0 9.13108 0L9.10507 0.0260145ZM9.10507 2.62746C12.7211 2.62746 15.6087 5.51507 15.6087 9.13108C15.6087 10.848 14.9843 12.4349 13.8917 13.6056C13.8657 13.6316 13.8397 13.6576 13.8137 13.6836C13.6908 13.7857 13.5776 13.8989 13.4755 14.0218C12.3309 15.0624 10.77 15.6607 9.07906 15.6607C5.46304 15.6607 2.57543 12.7731 2.57543 9.1571C2.57543 5.54108 5.46304 2.65348 9.07906 2.65348L9.10507 2.62746Z" fill="#475467"/>
</svg>
